# AST/ASF file generated using VICON BodyLanguage
# -----------------------------------------------
:version 1.10
:name VICON
:units
  mass 1.0
  length 0.45
  angle deg
:documentation
   .ast/.asf automatically generated from VICON data using
   VICON BodyBuilder and BodyLanguage model FoxedUp or BRILLIANT.MOD
:root
   order TX TY TZ RX RY RZ
   axis XYZ
   position 0 0 0  
   orientation 0 0 0 
:bonedata
  begin
     id 1 
     name lhipjoint
     direction 0.78388 -0.462562 0.414208 
     length 3.01181 
     axis 0 0 0  XYZ
  end
  begin
     id 2 
     name lfemur
     direction 0.34202 -0.939693 0  
     length 6.04673  
     axis 0 0 20  XYZ
    dof rx ry rz
    limits (-160.0 20.0)
           (-70.0 70.0)
           (-60.0 70.0)
  end
  begin
     id 3 
     name ltibia
     direction 0.34202 -0.939693 0   
     length 7.211   
     axis 0 0 20   XYZ
    dof rx
    limits (-10.0 170.0)
  end
  begin
     id 4 
     name lfoot
     direction 0.121887 -0.334882 0.934344   
     length 2.13567   
     axis -90 7.62852e-016 20   XYZ
    dof rx rz
    limits (-45.0 90.0)
           (-70.0 20.0)
  end
  begin
     id 5 
     name ltoes
     direction 1.53555e-011 -4.2179e-011 1   
     length 1.05957   
     axis -90 7.62852e-016 20   XYZ
    dof rx
    limits (-90.0 20.0)
  end
  begin
     id 6 
     name rhipjoint
     direction -0.769387 -0.475875 0.426129   
     length 2.92756  
     axis 0 0 0  XYZ 
  end
  begin
     id 7 
     name rfemur
     direction -0.34202 -0.939693 0   
     length 6.35468   
     axis 0 0 -20   XYZ
    dof rx ry rz
    limits (-160.0 20.0)
           (-70.0 70.0)
           (-70.0 60.0)
  end
  begin
     id 8 
     name rtibia
     direction -0.34202 -0.939693 0   
     length 7.37886   
     axis 0 0 -20   XYZ
    dof rx
    limits (-10.0 170.0)
 end
 begin
     id 9 
     name rfoot
     direction -0.101763 -0.279592 0.954711   
     length 2.21478  
     axis -90 -7.62852e-016 -20   XYZ
    dof rx rz
    limits (-45.0 90.0)
           (-20.0 70.0)
  end
  begin
     id 10 
     name rtoes
     direction -1.53494e-011 -4.21851e-011 1   
     length 1.10506   
     axis -90 -7.62852e-016 -20   XYZ
    dof rx
    limits (-90.0 20.0)
  end
  begin
     id 11 
     name lowerback
     direction 0.00747405 0.999267 0.0375481   
     length 2.13259   
     axis 0 0 0   XYZ
    dof rx ry rz
    limits (-20.0 45.0)
           (-30.0 30.0)
           (-30.0 30.0)
  end
  begin
     id 12 
     name upperback
     direction 0.00661626 0.996177 0.0871029   
     length 2.10528   
     axis 0 0 0   XYZ
    dof rx ry rz
    limits (-20.0 45.0)
           (-30.0 30.0)
           (-30.0 30.0)
  end
  begin
     id 13 
     name thorax
     direction 0.00320659 0.997679 0.0680167   
     length 2.11338   
     axis 0 0 0   XYZ
    dof rx ry rz
    limits (-20.0 45.0)
           (-30.0 30.0)
           (-30.0 30.0)
  end
  begin
     id 14 
     name lowerneck
     direction 0.0374841 0.973033 0.227602   
     length 1.42765   
     axis 0 0 0   XYZ
    dof rx ry rz
    limits (-20.0 45.0)
           (-30.0 30.0)
           (-30.0 30.0)
  end
  begin
     id 15 
     name upperneck
     direction 0.00481585 0.989155 -0.146795   
     length 1.47593   
     axis 0 0 0   XYZ
    dof rx ry rz
    limits (-20.0 45.0)
           (-30.0 30.0)
           (-30.0 30.0)
  end
  begin
     id 16
     name head
     direction -0.00292522 0.997206 -0.0746423  
     length 1.48116  
     axis 0 0 0   XYZ
    dof rx ry rz
    limits (-20.0 45.0)
           (-30.0 30.0)
           (-30.0 30.0)
  end
  begin
     id 17 
     name lclavicle
     direction 0.951444 0.305606 0.0368784  
     length 3.01855  
     axis 0 0 0   XYZ
    dof ry rz
    limits (-20.0 10.0)
           (0.0 20.0)
  end
  begin
     id 18 
     name lhumerus
     direction 1 -4.48977e-011 2.61664e-027   
     length 5.52731   
     axis 180 -30 -90   XYZ
    dof rx ry rz
    limits (-60.0 90.0)
           (-90.0 90.0)
           (-90.0 90.0)
  end
  begin
     id 19
     name lradius
     direction 1 -4.48944e-011 8.22157e-027   
     length 3.11059   
     axis 180 -30 -90   XYZ
    dof rx
    limits (-10.0 170.0)
  end
  begin
     id 20
     name lwrist
     direction 1 -4.48976e-011 1.5779e-026   
     length 1.5553   
     axis -1.15221e-014 90 90   XYZ
    dof ry
    limits (-180.0 0.0)
 end
  begin
     id 21 
     name lhand
     direction 1 -4.49025e-011 3.1558e-026   
     length 0.419626   
     axis -2.01367e-014 90 90   XYZ
    dof rx rz
    limits (-90.0 90.0)
           (-45.0 45.0)
  end
  begin
     id 22 
     name lfingers
     direction 1 -4.4904e-011 6.31161e-026   
     length 0.338313   
     axis -4.02734e-014 90 90   XYZ
    dof rx
    limits (0.0 90.0)
  end
  begin
     id 23
     name lthumb
     direction 0.707107 -6.35004e-011 0.707107   
     length 0.485752   
     axis -90 45 2.85299e-015   XYZ
    dof rx rz
    limits (-45.0 45.0)
           (-45.0 45.0)
  end
  begin
     id 24 
     name rclavicle
     direction -0.968876 0.223791 0.105816   
     length 3.04177  
     axis 0 0 0   XYZ 
    dof ry rz
    limits (-10.0 20.0)
           (-20.0 0.0)
  end
  begin
     id 25 
     name rhumerus
     direction -1 -4.48962e-011 -1.01384e-027  
     length 5.25396   
     axis 180 30 90   XYZ
    dof rx ry rz
    limits (-90.0 60.0)
           (-90.0 90.0)
           (-90.0 90.0)
  end
  begin
     id 26 
     name rradius
     direction -1 -4.48955e-011 8.88542e-027   
     length 3.10567   
     axis 180 30 90   XYZ
    dof rx
    limits (-10.0 170.0)
  end
  begin
     id 27 
     name rwrist
     direction -1 -4.48994e-011 1.5779e-026   
     length 1.55283   
     axis -1.15221e-014 -90 -90   XYZ
    dof ry
    limits (-180.0 0.0)
  end
  begin
     id 28
     name rhand
     direction -1 -4.48891e-011 3.1558e-026   
     length 0.498676   
     axis -2.01367e-014 -90 -90   XYZ
    dof rx rz
    limits (-90.0 90.0)
           (-45.0 45.0)
  end
  begin
     id 29
     name rfingers
     direction -1 -4.48972e-011 6.31161e-026   
     length 0.402045   
     axis -4.02734e-014 -90 -90   XYZ
    dof rx
    limits (0.0 90.0)
  end
  begin
     id 30
     name rthumb
     direction -0.707107 -6.34849e-011 0.707107   
     length 0.577259   
     axis -90 -45 -2.85299e-015   XYZ
    dof rx rz
    limits (-45.0 45.0)
           (-45.0 45.0)
  end
:hierarchy
  begin
    root lhipjoint rhipjoint lowerback
    lhipjoint lfemur
    lfemur ltibia
    ltibia lfoot
    lfoot ltoes
    rhipjoint rfemur
    rfemur rtibia
    rtibia rfoot
    rfoot rtoes
    lowerback upperback
    upperback thorax
    thorax lowerneck lclavicle rclavicle
    lowerneck upperneck
    upperneck head
    lclavicle lhumerus
    lhumerus lradius
    lradius lwrist
    lwrist lhand lthumb
    lhand lfingers
    rclavicle rhumerus
    rhumerus rradius
    rradius rwrist
    rwrist rhand rthumb
    rhand rfingers
  end

#!OML:ASF H:\Pregnant\Project 1\Capture day 1\Session 1\femalepreg.ASF
:FULLY-SPECIFIED
:DEGREES
96
root 8.40504 2.51926 23.8752 1.59932 -45.4314 -117.903
lowerback 20.0515 -10.818 -9.69154
upperback 9.14098 -17.1586 1.1893
thorax 2.35695 -9.7515 9.01313
lowerneck -27.2694 4.93024 5.5275
upperneck 28.8337 5.85749 -3.22081
head 14.839 2.55918 -1.07528
rclavicle 1.44914e-013 -9.33667e-014
rhumerus -33.2041 18.7874 -63.2699
rradius 100.958
rwrist -12.3855
rhand 20.3839 -13.6176
rfingers 7.12502
rthumb 44.8925 -37.1593
lclavicle 1.44914e-013 -9.33667e-014
lhumerus -47.5592 -15.7136 79.1413
lradius 89.5419
lwrist 38.4543
lhand 16.2218 4.05686
lfingers 7.12502
lthumb 41.0005 28.9731
rfemur 33.5022 -34.427 -45.6003
rtibia 113.265
rfoot 4.30619 46.9577
rtoes 2.10546
lfemur -13.5946 -32.3684 -26.4846
ltibia 70.281
lfoot 25.2982 -6.52353
ltoes 2.81854
97
root 8.4223 2.51297 23.874 1.35704 -45.3142 -117.985
lowerback 20.4153 -10.7978 -9.62034
upperback 9.26376 -17.1604 1.14056
thorax 2.27627 -9.76129 9.00119
lowerneck -27.376 4.91385 5.51118
upperneck 28.8407 5.80951 -3.15114
head 14.8583 2.54727 -1.05173
rclavicle -2.56432e-014 8.21105e-014
rhumerus -33.169 18.6687 -63.3514
rradius 100.882
rwrist -12.356
rhand 20.335 -13.5815
rfingers 7.12502
rthumb 44.847 -37.1411
lclavicle -2.56432e-014 8.21105e-014
lhumerus -47.4172 -15.7793 79.042
lradius 89.4542
lwrist 38.7132
lhand 15.9637 4.24385
lfingers 7.12502
lthumb 40.758 29.2367
rfemur 33.6169 -34.5251 -45.8261
rtibia 113.08
rfoot 6.7276 46.906
rtoes 3.87823
lfemur -14.6723 -32.0858 -26.6654
ltibia 72.2649
lfoot 25.3114 -6.40238
ltoes 2.89818
98
root 8.43889 2.50635 23.8728 1.06468 -45.1466 -118.212
lowerback 20.9375 -10.779 -9.44677
upperback 9.43599 -17.1653 1.0894
thorax 2.14254 -9.77423 8.97069
lowerneck -27.4936 4.89347 5.49565
upperneck 28.8496 5.75014 -3.069
head 14.8798 2.53259 -1.02531
rclavicle 1.38752e-013 -1.05704e-013
rhumerus -33.1455 18.5266 -63.4556
rradius 100.803
rwrist -12.3184
rhand 20.2992 -13.5428
rfingers 7.12502
rthumb 44.8137 -37.1154
lclavicle 1.38752e-013 -1.05704e-013
lhumerus -47.2583 -15.873 78.9334
lradius 89.3682
lwrist 38.9542
lhand 15.7267 4.44864
lfingers 7.12502
lthumb 40.5352 29.511
rfemur 33.8407 -34.5518 -45.9901
rtibia 112.833
rfoot 9.77803 46.5959
rtoes 6.38666
lfemur -15.5416 -31.852 -26.8535
ltibia 74.224
lfoot 25.3073 -6.31768
ltoes 3.01308
99
root 8.45464 2.49955 23.8713 0.718899 -44.9292 -118.591
lowerback 21.6254 -10.7616 -9.16893
upperback 9.65758 -17.1711 1.03771
thorax 1.9534 -9.7894 8.92406
lowerneck -27.621 4.86687 5.47682
upperneck 28.8597 5.67762 -2.97358
head 14.9026 2.51407 -0.995405
rclavicle -3.33958e-014 8.41729e-014
rhumerus -33.1372 18.3576 -63.5812
rradius 100.722
rwrist -12.2696
rhand 20.2766 -13.5021
rfingers 7.12502
rthumb 44.7927 -37.0829
lclavicle -3.33958e-014 8.41729e-014
lhumerus -47.0828 -15.9988 78.8164
lradius 89.2842
lwrist 39.1727
lhand 15.5035 4.66956
lfingers 7.12502
lthumb 40.3254 29.7966
rfemur 34.1765 -34.4993 -46.073
rtibia 112.516
rfoot 13.2519 45.9965
rtoes 9.36371
lfemur -16.1941 -31.6673 -27.0449
ltibia 76.1575
lfoot 25.2934 -6.27153
ltoes 3.16678
100
root 8.46941 2.4926 23.8691 0.319442 -44.6674 -119.121
lowerback 22.4778 -10.7463 -8.78966
upperback 9.92646 -17.1759 0.987646
thorax 1.71089 -9.80612 8.86408
lowerneck -27.7572 4.83329 5.45235
upperneck 28.869 5.59209 -2.86543
head 14.9257 2.49145 -0.961848
rclavicle 1.76421e-013 -1.43814e-013
rhumerus -33.1435 18.161 -63.7267
rradius 100.642
rwrist -12.2073
rhand 20.2648 -13.4615
rfingers 7.12502
rthumb 44.7817 -37.0466
lclavicle 1.76421e-013 -1.43814e-013
lhumerus -46.89 -16.1557 78.6919
lradius 89.2013
lwrist 39.3647
lhand 15.2882 4.90382
lfingers 7.12502
lthumb 40.1228 30.0927
rfemur 34.6153 -34.365 -46.0545
rtibia 112.129
rfoot 16.9191 45.1188
rtoes 12.5129
lfemur -16.631 -31.5279 -27.2356
ltibia 78.064
lfoot 25.2773 -6.26265
ltoes 3.3529
101
root 8.48316 2.4855 23.8661 -0.130631 -44.3701 -119.793
lowerback 23.4847 -10.7351 -8.31652
upperback 10.2379 -17.1783 0.941399
thorax 1.42061 -9.82395 8.7937
lowerneck -27.9018 4.79301 5.42126
upperneck 28.8756 5.4951 -2.74648
head 14.9482 2.465 -0.924955
rclavicle 9.84978e-014 -1.68346e-014
rhumerus -33.1612 17.9389 -63.8899
rradius 100.563
rwrist -12.1308
rhand 20.2606 -13.426
rfingers 7.12502
rthumb 44.7778 -37.0126
lclavicle 9.84978e-014 -1.68346e-014
lhumerus -46.6796 -16.3386 78.5609
lradius 89.1187
lwrist 39.5265
lhand 15.0797 5.1475
lfingers 7.12502
lthumb 39.9267 30.3956
rfemur 35.139 -34.1531 -45.9181
rtibia 111.673
rfoot 20.5832 44.01
rtoes 15.5863
lfemur -16.8631 -31.4269 -27.4224
ltibia 79.9406
lfoot 25.2662 -6.29053
ltoes 3.55572
102
root 8.49591 2.4782 23.8621 -0.624596 -44.0493 -120.593
lowerback 24.6258 -10.7304 -7.76011
upperback 10.5849 -17.1768 0.900064
thorax 1.09155 -9.84215 8.71373
lowerneck -28.0535 4.74687 5.38448
upperneck 28.877 5.38846 -2.61948
head 14.969 2.43521 -0.885673
rclavicle 6.36111e-014 -5.86135e-014
rhumerus -33.1868 17.6944 -64.0697
rradius 100.486
rwrist -12.0405
rhand 20.2596 -13.3993
rfingers 7.12502
rthumb 44.7769 -36.9862
lclavicle 6.36111e-014 -5.86135e-014
lhumerus -46.4513 -16.5417 78.4234
lradius 89.0352
lwrist 39.6546
lhand 14.8826 5.39601
lfingers 7.12502
lthumb 39.7411 30.6996
rfemur 35.7243 -33.8744 -45.6569
rtibia 111.158
rfoot 24.1236 42.7259
rtoes 18.4596
lfemur -16.9117 -31.3553 -27.6029
ltibia 81.7832
lfoot 25.2666 -6.35258
ltoes 3.77292
103
root 8.50786 2.47067 23.8573 -1.15357 -43.7198 -121.496
lowerback 25.8727 -10.7345 -7.13719
upperback 10.9579 -17.1702 0.864369
thorax 0.7351 -9.85995 8.62579
lowerneck -28.2104 4.69637 5.34351
upperneck 28.8708 5.2752 -2.48827
head 14.9871 2.40297 -0.845247
rclavicle -3.70236e-014 3.0824e-014
rhumerus -33.2155 17.4333 -64.2636
rradius 100.409
rwrist -11.9383
rhand 20.2582 -13.3833
rfingers 7.12502
rthumb 44.7755 -36.9707
lclavicle -3.70236e-014 3.0824e-014
lhumerus -46.2061 -16.7575 78.2803
lradius 88.9501
lwrist 39.747
lhand 14.7039 5.64743
lfingers 7.12502
lthumb 39.5729 31.0009
rfemur 36.3434 -33.5443 -45.2745
rtibia 110.595
rfoot 27.4591 41.3368
rtoes 21.0408
lfemur -16.8069 -31.3016 -27.7766
ltibia 83.5862
lfoot 25.2837 -6.44429
ltoes 4.01166
104
root 8.5193 2.46289 23.8517 -1.7046 -43.397 -122.468
lowerback 27.1861 -10.7488 -6.46947
upperback 11.3444 -17.1572 0.833712
thorax 0.365066 -9.8763 8.5303
lowerneck -28.3691 4.64303 5.30075
upperneck 28.8556 5.1581 -2.35676
head 15.0015 2.36913 -0.805194
rclavicle 2.18663e-015 1.21075e-013
rhumerus -33.2442 17.1617 -64.4697
rradius 100.334
rwrist -11.8278
rhand 20.253 -13.3779
rfingers 7.12502
rthumb 44.7707 -36.9672
lclavicle 2.18663e-015 1.21075e-013
lhumerus -45.9464 -16.9795 78.1317
lradius 88.8627
lwrist 39.8032
lhand 14.5496 5.901
lfingers 7.12502
lthumb 39.4275 31.2972
rfemur 36.9661 -33.1832 -44.7907
rtibia 110.001
rfoot 30.5545 39.8976
rtoes 23.3195
lfemur -16.5911 -31.2539 -27.9441
ltibia 85.3436
lfoot 25.3215 -6.56254
ltoes 4.27873
